# xmcd
#
# Track frame offsets:
#	150
#	22914
#	41972
#	71385
#	88269
#	110064
#	134044
#	160316
#	182704
#	208211
#	244472
#	271762
#	293594
#	313912
#
# Disc length: 4583 seconds
#
# Revision: 0
# Processed by: cddbd v1.5.1PL2 Copyright (c) Steve Scherf et al.
# Submitted via: dBpowerAMP V4.0
#
DISCID=da11e50e
DTITLE=Various Artist - Illusion The Green Zone - CD2
DYEAR=1900
DGENRE=
TTITLE0=Annie - Heartbeat (Alan Braxe Remix)
TTITLE1=Basto! - Rock With You
TTITLE2=Dave Lambert - Yeah
TTITLE3=Wharehouse - Music Muscle
TTITLE4=Collatrax - Animal (Funkastic Mix)
TTITLE5=Future Tiny Wave - Controversy
TTITLE6=Phunk Electric - Video Games Crash
TTITLE7=24/7 Beats - Intensity
TTITLE8=La Griffe - Make It Shine
TTITLE9=Exhibit A - G Minor
TTITLE10=Erick E - Keep On Making Noise
TTITLE11=Didier Sinclair and Dj Chris Pi - Heavenly
TTITLE12=Porno - Music Power
TTITLE13=Steven King - Afrikan Soul (Dr Kucho! Remix)
EXTD=
EXTT0=
EXTT1=
EXTT2=
EXTT3=
EXTT4=
EXTT5=
EXTT6=
EXTT7=
EXTT8=
EXTT9=
EXTT10=
EXTT11=
EXTT12=
EXTT13=
PLAYORDER=
